<svg xmlns="http://www.w3.org/2000/svg" width="40" height="40">
    <defs>
        <linearGradient id="a" x1="30.092%" x2="93.107%" y1="60.139%" y2="-39.813%">
            <stop offset="0%" stop-color="#6700EB"/>
            <stop offset="100%" stop-color="#45009D"/>
        </linearGradient>
        <linearGradient id="b" x1="69.909%" x2="6.893%" y1="39.861%" y2="139.813%">
            <stop offset="0%" stop-color="#6700EB"/>
            <stop offset="100%" stop-color="#45009D"/>
        </linearGradient>
    </defs>
    <g fill="none" fill-rule="nonzero">
        <path fill="url(#a)" d="M0 15.995h5.291c2.014 0 3.91.947 5.12 2.556l5.22 6.936a.427.427 0 0 1 .038.453l-3.008 5.829a.427.427 0 0 1-.72.06L0 15.996Z" transform="translate(10 4)"/>
        <path fill="url(#b)" d="M20.819 16.005h-5.291a6.408 6.408 0 0 1-5.12-2.556l-5.22-6.936a.427.427 0 0 1-.038-.453L8.158.231a.427.427 0 0 1 .72-.061l11.94 15.835Z" transform="translate(10 4)"/>
    </g>
</svg>
