<?xml version="1.0" encoding="UTF-8"?>
<svg width="16px" height="16px" viewBox="0 0 16 16" version="1.1" xmlns="http://www.w3.org/2000/svg" xmlns:xlink="http://www.w3.org/1999/xlink">
    <title>Generator Icon</title>
    <defs>
        <linearGradient x1="30.0916872%" y1="60.1389818%" x2="93.1070667%" y2="-39.8125462%" id="linearGradient-1">
            <stop stop-color="#6700EB" offset="0%"></stop>
            <stop stop-color="#45009D" offset="100%"></stop>
        </linearGradient>
        <linearGradient x1="69.9085121%" y1="39.8610343%" x2="6.89327782%" y2="139.812536%" id="linearGradient-2">
            <stop stop-color="#6700EB" offset="0%"></stop>
            <stop stop-color="#45009D" offset="100%"></stop>
        </linearGradient>
    </defs>
    <g id="Generator-Icon" stroke="none" stroke-width="1" fill="none" fill-rule="evenodd">
        <g id="svg-transparent-bg" transform="translate(4.000000, 2.000000)" fill-rule="nonzero">
            <path d="M0,6.39819598 L2.11646251,6.39819598 C2.92189321,6.39819598 3.68045112,6.77673413 4.16472243,7.42029209 L6.25244707,10.1946761 C6.2919118,10.2471251 6.29786518,10.3175151 6.26777501,10.3758098 L5.06432971,12.7074884 C5.00660076,12.8193366 4.85181281,12.8325095 4.77603514,12.7319754 L0,6.39819598 Z" id="Path" fill="url(#linearGradient-1)"></path>
            <path d="M8.32756455,6.40180573 L6.21109665,6.40180573 C5.40569289,6.40180573 4.64710804,6.02326758 4.16283674,5.37970962 L2.07511209,2.6053256 C2.03564736,2.55287657 2.02972092,2.48248658 2.05981109,2.42419192 L3.26322945,0.0925240566 C3.32098535,-0.0193429645 3.47574635,-0.0325023643 3.55155096,0.0680128223 L8.32756455,6.40180573 Z" id="Path" fill="url(#linearGradient-2)"></path>
        </g>
    </g>
</svg>