<svg xmlns="http://www.w3.org/2000/svg" width="16" height="16">
    <defs>
        <linearGradient id="a" x1="30.092%" x2="93.107%" y1="60.139%" y2="-39.813%">
            <stop offset="0%" stop-color="#6700EB"/>
            <stop offset="100%" stop-color="#45009D"/>
        </linearGradient>
        <linearGradient id="b" x1="69.909%" x2="6.893%" y1="39.861%" y2="139.813%">
            <stop offset="0%" stop-color="#6700EB"/>
            <stop offset="100%" stop-color="#45009D"/>
        </linearGradient>
    </defs>
    <g fill="none" fill-rule="nonzero">
        <path fill="url(#a)" d="M0 6.398h2.116c.806 0 1.564.379 2.049 1.022l2.087 2.775a.17.17 0 0 1 .016.18l-1.204 2.332a.17.17 0 0 1-.288.025L0 6.398Z" transform="translate(4 2)"/>
        <path fill="url(#b)" d="M8.328 6.402H6.21A2.563 2.563 0 0 1 4.163 5.38L2.075 2.605a.17.17 0 0 1-.015-.18L3.263.092a.17.17 0 0 1 .289-.025l4.776 6.334Z" transform="translate(4 2)"/>
    </g>
</svg>
